<svg width="210" height="35" viewBox="0 0 210 35" fill="none" xmlns="http://www.w3.org/2000/svg">
<path d="M50.138 10.9779C53.5259 10.9779 55.1674 12.6998 55.1674 15.7748C55.1674 17.736 54.6637 18.8229 52.8637 19.5653C54.6101 20.0148 55.9077 21.3666 55.9077 24.0435C55.9077 27.7523 53.8162 29.3167 50.1636 29.3167H43.9987V10.9779H50.138ZM49.6366 18.531C51.4099 18.531 51.8855 17.7091 51.8855 16.0654C51.8855 14.4497 51.3038 13.6279 49.5294 13.6279H47.1476V18.5298H49.6366V18.531ZM49.6623 26.6667C51.7002 26.6667 52.4941 25.8191 52.4941 23.8847C52.4941 22.0554 51.8331 21.1285 49.7148 21.1285H47.1476V26.6678H49.6623V26.6667Z" fill="#E21224"/>
<path d="M57.2332 25.4222C57.2332 22.3461 59.0321 20.9954 63.2128 20.9954H64.1665V20.2261C64.1665 18.8217 63.9823 18.0547 62.4725 18.0547C61.1505 18.0547 59.8797 18.6361 58.7698 19.2723L57.6576 17.1254C59.0858 16.1985 60.6468 15.5623 62.792 15.5623C65.7823 15.5623 67.1848 16.7285 67.1848 19.7486V29.3167H64.8298L64.4591 28.1493C63.7188 28.9443 62.6859 29.6599 61.2309 29.6599C58.5553 29.6599 57.2332 28.1236 57.2332 25.4222ZM64.1653 26.3468V22.9566H63.6897C60.8054 22.9566 60.3006 23.6979 60.3006 25.3942C60.3006 26.9305 60.7506 27.4605 61.8908 27.4605C62.8946 27.4605 63.636 26.8768 64.1653 26.3468Z" fill="#E21224"/>
<path d="M69.963 15.9067H72.3717L72.6888 17.3648C73.7741 16.3048 74.9913 15.5623 76.6316 15.5623C78.7488 15.5623 79.9939 16.5441 79.9939 19.061V29.3167H76.9767V19.8292C76.9767 18.4259 76.5255 18.0804 75.5474 18.0804C74.5949 18.0804 73.7473 18.5835 72.9802 19.2723V29.3167H69.963V15.9067Z" fill="#E21224"/>
<path d="M82.0318 22.5866C82.0318 17.5504 83.9892 15.5623 87.4821 15.5623C89.1236 15.5623 90.3151 16.0141 91.4529 17.1009L89.893 19.1135C89.2028 18.3967 88.5954 18.0278 87.615 18.0278C85.8965 18.0278 85.2611 18.7423 85.2611 22.5329C85.2611 26.2966 85.9233 27.1967 87.749 27.1967C88.8065 27.1967 89.3894 26.718 90.0772 26.0853L91.5602 28.0722C90.5797 29.0528 89.3626 29.661 87.5625 29.661C83.8843 29.6599 82.0318 27.4068 82.0318 22.5866Z" fill="#E21224"/>
<path d="M92.4042 22.5866C92.4042 17.5235 94.5482 15.5623 98.0142 15.5623C101.483 15.5623 103.678 17.5761 103.678 22.6123C103.678 27.6449 101.508 29.6599 98.0411 29.6599C94.5739 29.6599 92.4042 27.6204 92.4042 22.5866ZM100.449 22.5866C100.449 18.7423 99.7607 17.8434 98.0131 17.8434C96.2678 17.8434 95.6056 18.7692 95.6056 22.6123C95.6056 26.4005 96.2946 27.3811 98.0399 27.3811C99.7887 27.3811 100.449 26.3736 100.449 22.5866Z" fill="#E21224"/>
<path d="M129.964 26.0024V15.9055H132.98V25.2903C132.98 26.7169 133.508 27.143 134.487 27.143C135.414 27.143 136.261 26.6118 137.056 25.9254V15.9055H140.046V29.3155H137.639L137.322 27.8306C136.261 28.8906 135.229 29.6587 133.534 29.6587C131.498 29.6599 129.964 28.4936 129.964 26.0024Z" fill="#E21224"/>
<path d="M142.933 15.9067H145.34L145.659 17.3648C146.744 16.3048 147.961 15.5623 149.603 15.5623C151.72 15.5623 152.964 16.5441 152.964 19.061V29.3167H149.945V19.8292C149.945 18.4259 149.495 18.0804 148.516 18.0804C147.562 18.0804 146.717 18.5835 145.95 19.2723V29.3167H142.934V15.9067H142.933Z" fill="#E21224"/>
<path d="M156.483 18.1866L154.736 17.8679V15.9055H159.473V29.3155H156.482V18.1866H156.483ZM156.033 11.9585C156.033 10.8705 156.879 9.99609 157.966 9.99609C159.049 9.99609 159.896 10.8448 159.896 11.9585C159.896 13.0454 159.049 13.8917 157.936 13.8917C156.88 13.8917 156.033 13.0454 156.033 11.9585Z" fill="#E21224"/>
<path d="M161.697 22.5866C161.697 17.5504 163.656 15.5623 167.15 15.5623C168.79 15.5623 169.981 16.0141 171.12 17.1009L169.557 19.1135C168.87 18.3967 168.263 18.0278 167.284 18.0278C165.561 18.0278 164.926 18.7423 164.926 22.5329C164.926 26.2966 165.589 27.1967 167.414 27.1967C168.472 27.1967 169.057 26.718 169.744 26.0853L171.225 28.0722C170.247 29.0528 169.03 29.661 167.229 29.661C163.549 29.6599 161.697 27.4068 161.697 22.5866Z" fill="#E21224"/>
<path d="M174.269 18.1866L172.524 17.8679V15.9055H177.262V29.3155H174.269V18.1866ZM173.818 11.9585C173.818 10.8705 174.667 9.99609 175.752 9.99609C176.838 9.99609 177.684 10.8448 177.684 11.9585C177.684 13.0454 176.839 13.8917 175.724 13.8917C174.667 13.8917 173.818 13.0454 173.818 11.9585Z" fill="#E21224"/>
<path d="M180.226 15.9067H182.633L182.977 17.3134C183.981 16.2254 185.172 15.5635 186.55 15.5635C189.249 15.5635 191.076 17.0484 191.076 22.429C191.076 27.7535 189.62 29.6622 186.55 29.6622C185.122 29.6622 183.982 29.0003 183.243 28.3115V34.542H180.226V15.9067ZM187.847 22.5866C187.847 18.796 187.345 18.0267 185.755 18.0267C184.672 18.0267 183.956 18.531 183.243 19.2198V26.1623C183.823 26.7169 184.645 27.1698 185.572 27.1698C187.266 27.171 187.847 26.453 187.847 22.5866Z" fill="#E21224"/>
<path d="M192.481 25.4222C192.481 22.3461 194.28 20.9954 198.462 20.9954H199.414V20.2261C199.414 18.8217 199.23 18.0547 197.72 18.0547C196.396 18.0547 195.126 18.6361 194.016 19.2723L192.904 17.1254C194.332 16.1985 195.894 15.5623 198.037 15.5623C201.03 15.5623 202.431 16.7285 202.431 19.7486V29.3167H200.077L199.704 28.1493C198.965 28.9443 197.935 29.6599 196.477 29.6599C193.803 29.6599 192.481 28.1236 192.481 25.4222ZM199.413 26.3468V22.9566H198.937C196.052 22.9566 195.548 23.6979 195.548 25.3942C195.548 26.9305 196.001 27.4605 197.138 27.4605C198.143 27.4605 198.883 26.8768 199.413 26.3468Z" fill="#E21224"/>
<path d="M205.235 25.8448V10.0241H208.254V26.216C208.254 27.0636 208.465 27.2492 209.207 27.2492C209.419 27.2492 209.629 27.2223 209.629 27.2223L210 29.263C209.577 29.4217 208.808 29.6085 208.095 29.6085C205.818 29.6073 205.235 28.4668 205.235 25.8448Z" fill="#E21224"/>
<path d="M122.679 10.958L119.344 22.5994L116.036 10.958H111.455V29.2956H114.58V19.8899C114.58 19.842 114.58 19.7953 114.58 19.7486V15.5599L115.692 19.0949C115.727 19.2116 115.761 19.326 115.797 19.4404L117.888 26.0654H120.826L121.949 22.5084L121.95 22.5142L122.785 19.8583L122.918 19.4404C122.92 19.4287 122.924 19.4182 122.927 19.4077L124.136 15.5728V29.298H127.259V10.958H122.679Z" fill="#E21224"/>
<path d="M27.0455 28.0117C25.1599 29.8909 22.037 29.8909 20.1515 28.0117L28.2828 19.9077C28.165 19.2617 27.8704 18.6158 27.399 18.0872L21.6835 23.7836L17.5 27.953C17.5 28.0117 17.4411 28.0117 17.4411 28.0117C15.5556 29.8909 12.4327 29.8909 10.5471 28.0117L18.6785 19.849C18.5606 19.203 18.266 18.557 17.7946 18.0285L7.8367 27.953C7.8367 28.0117 7.77778 28.0117 7.77778 28.0117C6.95286 28.8926 5.83333 29.3624 4.7138 29.4211C7.89562 32.8859 12.4916 35 17.6178 35C26.4562 35 33.7037 28.5403 35 20.0839L27.1044 27.953L27.0455 28.0117ZM12.0202 16.9128C13.1397 15.797 14.6717 15.3272 16.1448 15.5621C16.2037 15.5621 16.2626 15.5621 16.3215 15.6208C16.3805 15.6208 16.4394 15.6208 16.4394 15.6208C16.5572 15.6208 16.6751 15.6795 16.7929 15.6795C16.8519 15.6795 16.8519 15.6795 16.8519 15.6795C16.9697 15.7383 17.1465 15.7383 17.2643 15.797C17.3232 15.797 17.3232 15.8557 17.3822 15.8557C17.5 15.9144 17.5589 15.9144 17.6768 15.9732C17.7357 15.9732 17.7946 16.0319 17.7946 16.0319C17.8535 16.0906 17.9714 16.1493 18.0303 16.1493C18.0892 16.2081 18.1481 16.2081 18.1481 16.2668C18.2071 16.3255 18.3249 16.3842 18.3838 16.443C18.4428 16.5017 18.4428 16.5017 18.5017 16.5604C18.6195 16.6779 18.7374 16.7366 18.8552 16.854C19.3266 17.3238 19.6801 17.9111 19.9158 18.4983L21.5657 16.854C22.6852 15.7383 24.2172 15.2685 25.6902 15.5034C25.7492 15.5034 25.8081 15.5034 25.867 15.5621C25.9259 15.5621 25.9848 15.5621 25.9848 15.5621C26.1027 15.5621 26.2205 15.6208 26.3384 15.6208C26.3973 15.6208 26.3973 15.6208 26.4562 15.6208C26.5741 15.6795 26.7508 15.6795 26.8687 15.7383C26.9276 15.7383 26.9276 15.797 26.9865 15.797C27.1044 15.8557 27.1633 15.8557 27.2811 15.9144C27.3401 15.9144 27.399 15.9732 27.399 15.9732C27.4579 16.0319 27.5758 16.0906 27.6347 16.0906C27.6936 16.1493 27.7525 16.1493 27.7525 16.2081C27.8114 16.2668 27.9293 16.3255 27.9882 16.3842C28.0471 16.443 28.0471 16.443 28.1061 16.5017C28.2239 16.6191 28.3418 16.6779 28.4596 16.7953C28.931 17.2651 29.2845 17.8523 29.5202 18.4396L31.17 16.7953C32.1717 15.797 33.5859 15.3272 34.8822 15.3859C34.0572 6.75336 26.5741 0 17.5589 0C7.89562 0 0 7.86913 0 17.5C0 20.7886 0.883838 23.8423 2.47475 26.4262L12.0202 16.9128Z" fill="#E21224"/>
</svg>
